<svg xmlns="http://www.w3.org/2000/svg" xmlns:xlink="http://www.w3.org/1999/xlink" version="1.1" x="0px" y="0px" viewBox="0 0 100 125" enable-background="new 0 0 100 100" xml:space="preserve"><path d="M87.789,19.039c-7.428-8.097-20.361-9.93-29.861-3.995V37.49L87.789,19.039z"/><path d="M42.072,15.043c-9.499-5.935-22.433-4.101-29.861,3.996L42.072,37.49V15.043z"/><path d="M23.179,68.669c6.383,6.32,13.521,11.692,18.893,15.246V56.996L23.179,68.669z"/><path d="M34.254,39.131L9.026,23.547c-0.615,1.161-1.14,2.399-1.559,3.715L26.685,39.13L34.254,39.131L34.254,39.131z"/><path d="M34.253,55.168l-15.06,9.305c0.806,0.908,1.637,1.799,2.485,2.676l19.389-11.98H34.253z"/><path d="M66.501,39.315l24.73-15.276c-0.606-1.213-1.312-2.341-2.099-3.387L58.931,39.315H66.501z"/><path d="M65.743,55.169l15.063,9.305c0.806-0.908,1.586-1.83,2.339-2.767l-10.586-6.538H65.743z"/><path d="M93.384,39.315c0.517-3.75,0.354-7.156-0.348-10.199L76.521,39.315H93.384z"/><path d="M84.432,60.055c1.205-1.602,2.311-3.234,3.292-4.886H76.521L84.432,60.055z"/><path d="M6.964,29.116c-0.701,3.043-0.865,6.449-0.348,10.199H23.48L6.964,29.116z"/><path d="M12.276,55.169c0.982,1.652,2.085,3.284,3.292,4.886l7.911-4.886H12.276z"/><path d="M57.928,83.915c5.372-3.552,12.511-8.926,18.895-15.246L57.928,56.996V83.915z"/><path d="M54.586,42.656V17.594c-1.745,1.615-3.3,3.56-4.586,5.854c-1.286-2.296-2.841-4.242-4.587-5.855v25.063H7.235  c0.618,2.641,1.56,5.433,2.868,8.367c0.12,0.269,0.257,0.537,0.385,0.806h34.925v34.203c2.217,1.34,3.856,2.186,4.587,2.414  c0.73-0.229,2.369-1.072,4.586-2.412V51.828H89.51c0.129-0.269,0.265-0.537,0.385-0.806c1.31-2.934,2.252-5.725,2.868-8.367H54.586z  "/><path d="M50.001,89.633c-0.442,0-0.866-0.084-1.198-0.236c-6.142-2.851-31.736-19.573-39.912-37.91  C3.719,39.886,3.703,29.136,8.844,21.215c4.408-6.792,12.122-10.849,20.633-10.849c8.456,0,16.021,4.153,20.524,11.188  c4.503-7.034,12.068-11.188,20.522-11.188c8.512,0,16.224,4.055,20.633,10.849c5.142,7.922,5.124,18.671-0.047,30.271  c-8.18,18.34-33.769,35.061-39.911,37.909C50.866,89.549,50.441,89.633,50.001,89.633z M29.477,12.133  c-7.793,0-15.133,3.848-19.152,10.043c-4.805,7.403-4.74,17.556,0.179,28.591c7.858,17.623,33.26,34.344,39.042,37.025  c0.145,0.068,0.763,0.068,0.908,0c5.782-2.682,31.182-19.4,39.044-37.025c4.918-11.034,4.98-21.188,0.177-28.591  c-4.022-6.195-11.36-10.043-19.152-10.043c-8.311,0-15.694,4.324-19.752,11.569l-0.771,1.375l-0.771-1.375  C45.172,16.458,37.788,12.133,29.477,12.133z"/><text x="0" y="115" fill="#000000" font-size="5px" font-weight="bold" font-family="'Helvetica Neue', Helvetica, Arial-Unicode, Arial, Sans-serif">Created by Milinda Courey</text><text x="0" y="120" fill="#000000" font-size="5px" font-weight="bold" font-family="'Helvetica Neue', Helvetica, Arial-Unicode, Arial, Sans-serif">from the Noun Project</text></svg>