<svg height='100px' width='100px'  fill="#000000" xmlns="http://www.w3.org/2000/svg" data-name="Layer 1" viewBox="0 0 100 100" x="0px" y="0px"><title>Artboard 15</title><path d="M74.88,44.46,65.74,55.87A8.07,8.07,0,1,1,58.9,49l11.41-9.14a3.25,3.25,0,0,1,4.57,4.57Zm-33,28.21a4.13,4.13,0,0,0-4.13-4.13H20.38a4.13,4.13,0,0,0,0,8.26H37.74A4.13,4.13,0,0,0,41.87,72.67ZM94.09,28.32a5.46,5.46,0,0,0,1.62-3.13,5.19,5.19,0,0,0-5.81-5.81A5.45,5.45,0,0,0,86.77,21l-4.28,4.28A40,40,0,0,0,63,17.12V13.23h3.73a5.34,5.34,0,0,0,5.39-4.66A5.19,5.19,0,0,0,67,2.87H48.91a5.34,5.34,0,0,0-5.39,4.66,5.19,5.19,0,0,0,5.16,5.7h4v3.88a40.27,40.27,0,0,0-18.53,7.46,5.17,5.17,0,0,0,6.11,8.33,29.83,29.83,0,1,1,1.84,49.3,5.17,5.17,0,0,0-6.72,1h0a5.17,5.17,0,0,0,1.15,7.68A39.85,39.85,0,0,0,64,96.66,40.3,40.3,0,0,0,98,57.42a39.72,39.72,0,0,0-8.22-24.78Zm-56.35,19a4.13,4.13,0,1,0,0-8.26H6.13a4.13,4.13,0,1,0,0,8.26Zm0,6.47H13.9a4.13,4.13,0,1,0,0,8.26H37.74a4.13,4.13,0,1,0,0-8.26Z"></path></svg>